<svg width="13" height="16" viewBox="0 0 13 16" fill="none" xmlns="http://www.w3.org/2000/svg">
<path d="M6.49999 16C5.41736 15.0425 4.41387 13.9928 3.49999 12.8619C2.12857 11.1636 0.500001 8.63433 0.500001 6.22413C0.499406 4.99322 0.851007 3.7898 1.51031 2.76616C2.16961 1.74252 3.10697 0.944677 4.20376 0.473603C5.30056 0.00252992 6.50748 -0.120599 7.6718 0.1198C8.83611 0.360199 9.90547 0.953319 10.7445 1.8241C11.3032 2.40075 11.746 3.08655 12.0473 3.84181C12.3486 4.59708 12.5025 5.4068 12.5 6.22413C12.5 8.63433 10.8714 11.1636 9.49998 12.8619C8.5861 13.9928 7.5826 15.0425 6.49999 16ZM6.49999 3.55798C5.818 3.55798 5.16395 3.83888 4.68172 4.33888C4.19948 4.83888 3.92856 5.51702 3.92856 6.22413C3.92856 6.93123 4.19948 7.60938 4.68172 8.10938C5.16395 8.60938 5.818 8.89028 6.49999 8.89028C7.18197 8.89028 7.83602 8.60938 8.31826 8.10938C8.80049 7.60938 9.07141 6.93123 9.07141 6.22413C9.07141 5.51702 8.80049 4.83888 8.31826 4.33888C7.83602 3.83888 7.18197 3.55798 6.49999 3.55798Z" fill="black"/>
</svg>
