<svg width="49" height="49" viewBox="0 0 49 49" fill="none" xmlns="http://www.w3.org/2000/svg">
<path d="M7.6182 23.8643L15.6829 26.9263L18.8045 37.1387C19.0042 37.7927 19.7904 38.0345 20.3123 37.6005L24.8077 33.8724C25.2789 33.4818 25.9501 33.4623 26.4425 33.826L34.5506 39.8144C35.1089 40.2271 35.8998 39.916 36.0398 39.2297L41.9794 10.1653C42.1322 9.41574 41.4082 8.7904 40.7065 9.06646L7.60875 22.0552C6.79197 22.3757 6.79909 23.5521 7.6182 23.8643ZM18.3014 25.2964L34.0628 15.4211C34.3461 15.2441 34.6375 15.6338 34.3943 15.8633L21.3865 28.1636C20.9293 28.5966 20.6344 29.176 20.5508 29.8049L20.1077 33.1453C20.0491 33.5913 19.4332 33.6356 19.3122 33.204L17.608 27.1126C17.4129 26.4178 17.6973 25.6757 18.3014 25.2964Z" fill="white"/>
</svg>
