<svg width="71" height="70" viewBox="0 0 71 70" fill="none" xmlns="http://www.w3.org/2000/svg">
<path d="M20.1875 27.3438H29.5784L34.7267 32.492C34.94 32.7053 35.22 32.8125 35.5 32.8125C35.78 32.8125 36.06 32.7053 36.2733 32.492L41.4216 27.3438H50.8125C53.2253 27.3438 55.1875 25.3816 55.1875 22.9688V5.46875C55.1875 3.05594 53.2253 1.09375 50.8125 1.09375H20.1875C17.7747 1.09375 15.8125 3.05594 15.8125 5.46875V22.9688C15.8125 25.3816 17.7747 27.3438 20.1875 27.3438ZM18 5.46875C18 4.26234 18.9811 3.28125 20.1875 3.28125H50.8125C52.0189 3.28125 53 4.26234 53 5.46875V22.9688C53 24.1752 52.0189 25.1562 50.8125 25.1562H40.9688C40.6778 25.1562 40.4 25.2711 40.1955 25.4767L35.5 30.1722L30.8045 25.4767C30.6 25.2711 30.3222 25.1562 30.0312 25.1562H20.1875C18.9811 25.1562 18 24.1752 18 22.9688V5.46875Z" fill="black"/>
<path d="M29.5785 21.875C30.285 22.5805 31.2224 22.9688 32.2188 22.9688C33.2152 22.9688 34.1536 22.5805 34.8591 21.875L46.1171 10.6171C46.5447 10.1894 46.5447 9.49815 46.1171 9.0705L42.8358 5.78925C42.4082 5.36159 41.7169 5.36159 41.2892 5.78925L32.2188 14.8597L29.7108 12.3517C29.2832 11.9241 28.5919 11.9241 28.1642 12.3517L24.883 15.633C24.4553 16.0607 24.4553 16.7519 24.883 17.1796L29.5785 21.875ZM28.9375 14.6716L31.4455 17.1796C31.8732 17.6072 32.5644 17.6072 32.9921 17.1796L42.0625 8.10909L43.7972 9.84378L33.3125 20.3274C32.7274 20.9125 31.7102 20.9125 31.125 20.3274L27.2028 16.4063L28.9375 14.6716Z" fill="black"/>
<path d="M68.3125 36.0938H57.375C56.7702 36.0938 56.2812 36.5838 56.2812 37.1875V38.2812H14.7188V37.1875C14.7188 36.5838 14.2298 36.0938 13.625 36.0938H2.6875C2.08266 36.0938 1.59375 36.5838 1.59375 37.1875V60.1562C1.59375 60.76 2.08266 61.25 2.6875 61.25H13.625C14.2298 61.25 14.7188 60.76 14.7188 60.1562V59.0625H18.6409L27.2586 67.6791C28.0494 68.4709 29.0994 68.9062 30.2194 68.9062C32.1389 68.9062 33.7445 67.5992 34.2367 65.8339C34.9652 66.3972 35.8445 66.7188 36.7819 66.7188C38.7014 66.7188 40.307 65.4117 40.7992 63.6464C41.5277 64.2097 42.407 64.5312 43.3444 64.5312C45.2639 64.5312 46.8695 63.2242 47.3617 61.4589C48.0902 62.0222 48.9695 62.3438 49.9069 62.3438C51.903 62.3438 53.5731 60.9361 53.9888 59.0625H56.2812V60.1562C56.2812 60.76 56.7702 61.25 57.375 61.25H68.3125C68.9173 61.25 69.4062 60.76 69.4062 60.1562V37.1875C69.4062 36.5838 68.9173 36.0938 68.3125 36.0938ZM12.5312 59.0625H3.78125V38.2812H12.5312V59.0625ZM49.9069 60.1562C49.3808 60.1562 48.8656 59.943 48.4927 59.57L39.5545 50.633L38.008 52.1795L44.7597 58.9302C45.1359 59.3086 45.3438 59.8106 45.3438 60.3433C45.3438 61.4469 44.4469 62.3438 43.3444 62.3438C42.8183 62.3438 42.3031 62.1305 41.9302 61.7575L34.0858 53.9142L32.5392 55.4608L38.1972 61.1177C38.5734 61.4961 38.7812 61.9981 38.7812 62.5308C38.7812 63.6344 37.8844 64.5312 36.7819 64.5312C36.2558 64.5312 35.7406 64.318 35.3677 63.945L28.617 57.1955L27.0705 58.742L31.6347 63.3063C32.0109 63.6836 32.2188 64.1856 32.2188 64.7183C32.2188 65.8219 31.3219 66.7188 30.2194 66.7188C29.6933 66.7188 29.1781 66.5055 28.8052 66.1325L19.867 57.1955C19.6625 56.9898 19.3847 56.875 19.0938 56.875H14.7188V40.4688H30.6722L25.7886 45.3523C24.9978 46.1431 24.5625 47.1942 24.5625 48.312C24.5625 50.622 26.4416 52.5 28.7494 52.5C29.8683 52.5 30.9194 52.0647 31.7102 51.2728L37.0466 45.9375H40.5159L51.3211 56.7416C51.6984 57.12 51.9062 57.622 51.9062 58.1558C51.9062 59.2594 51.0094 60.1562 49.9069 60.1562ZM53.8739 56.875C53.6727 56.2516 53.3434 55.673 52.8666 55.195L41.742 44.0705C41.5375 43.8648 41.2597 43.75 40.9688 43.75H36.5938C36.3028 43.75 36.025 43.8648 35.8205 44.0705L30.1636 49.7273C29.7906 50.0992 29.2766 50.3125 28.7494 50.3125C27.6469 50.3125 26.75 49.4156 26.75 48.312C26.75 47.7783 26.9578 47.2752 27.3352 46.8978L33.7653 40.4688H56.2812V56.875H53.8739ZM67.2188 59.0625H58.4688V38.2812H67.2188V59.0625Z" fill="black"/>
</svg>
