<svg width="71" height="70" viewBox="0 0 71 70" fill="none" xmlns="http://www.w3.org/2000/svg">
<g clip-path="url(#clip0_2587_7557)">
<path d="M63.8186 57.2005C64.9371 56.1686 65.651 54.7033 65.651 53.0649V50.8069C65.651 47.6944 63.1185 45.1619 60.006 45.1619C57.2805 45.1619 54.9999 47.1051 54.4745 49.6779H50.7661C50.2986 48.367 49.0566 47.4199 47.5869 47.4199C46.1167 47.4199 44.8747 48.367 44.4072 49.6779H40.6988C40.2484 47.4695 38.5047 45.7264 36.2969 45.276V42.7434C38.2395 42.239 39.6839 40.4865 39.6839 38.3878H40.8129C41.4369 38.3878 41.9419 37.8834 41.9419 37.2588V33.8718H44.1999V31.6138H41.9419V31.6017C41.9419 29.4418 42.9656 27.3188 44.7506 25.7813C47.9877 22.9891 49.8449 18.9428 49.8449 14.6787C49.8449 10.6462 48.2424 6.88649 45.3333 4.09209C42.4259 1.2977 38.583 -0.160969 34.5626 0.0143355C26.9418 0.321394 20.6292 6.7801 20.493 14.4114C20.4147 18.7306 22.2361 22.8447 25.4897 25.6992C27.2803 27.2681 28.3211 29.4148 28.3823 31.6138H26.1358V33.8718H28.3938V37.2588C28.3938 37.8834 28.8982 38.3878 29.5228 38.3878H30.6518C30.6518 40.4865 32.0956 42.239 34.0389 42.7434V45.276C31.8305 45.7264 30.0873 47.4695 29.6364 49.6779H25.928C25.4605 48.367 24.2185 47.4199 22.7488 47.4199C21.2786 47.4199 20.0365 48.367 19.5691 49.6779H15.8607C15.3353 47.1051 13.0558 45.1619 10.3297 45.1619C7.21671 45.1619 4.68472 47.6944 4.68472 50.8069V53.0649C4.68472 54.7033 5.39807 56.1686 6.5166 57.2005C2.79882 58.7121 0.168701 62.3588 0.168701 66.613V68.871C0.168701 69.4956 0.673115 70 1.29771 70H19.3618C19.9858 70 20.4908 69.4956 20.4908 68.871V66.613C20.4908 62.3588 17.8601 58.7121 14.1423 57.2005C15.2609 56.1686 15.9748 54.7033 15.9748 53.0649V51.9359H19.5691C20.0365 53.2468 21.2786 54.1939 22.7488 54.1939C24.2185 54.1939 25.4605 53.2468 25.928 51.9359H29.5228V53.0649C29.5228 54.7033 30.2362 56.1686 31.3547 57.2005C27.6369 58.7121 25.0068 62.3588 25.0068 66.613V68.871C25.0068 69.4956 25.5112 70 26.1358 70H44.1999C44.8239 70 45.3289 69.4956 45.3289 68.871V66.613C45.3289 62.3588 42.6982 58.7121 38.9805 57.2005C40.099 56.1686 40.8129 54.7033 40.8129 53.0649V51.9359H44.4072C44.8747 53.2468 46.1167 54.1939 47.5869 54.1939C49.0566 54.1939 50.2986 53.2468 50.7661 51.9359H54.3609V53.0649C54.3609 54.7033 55.0743 56.1686 56.1928 57.2005C52.475 58.7121 49.8449 62.3588 49.8449 66.613V68.871C49.8449 69.4956 50.3493 70 50.9739 70H69.038C69.662 70 70.167 69.4956 70.167 68.871V66.613C70.167 62.3588 67.5363 58.7121 63.8186 57.2005ZM18.2328 66.613V67.742H15.9748V65.484H13.7168V67.742H6.94273V65.484H4.68472V67.742H2.42671V66.613C2.42671 62.2563 5.97249 58.7099 10.3297 58.7099C14.6865 58.7099 18.2328 62.2563 18.2328 66.613ZM6.94273 53.0649V50.8069C6.94273 48.9397 8.46204 47.4199 10.3297 47.4199C12.1969 47.4199 13.7168 48.9397 13.7168 50.8069V53.0649C13.7168 54.9321 12.1969 56.4519 10.3297 56.4519C8.46204 56.4519 6.94273 54.9321 6.94273 53.0649ZM22.7488 51.9359C22.1253 51.9359 21.6198 51.4304 21.6198 50.8069C21.6198 50.184 22.1253 49.6779 22.7488 49.6779C23.3717 49.6779 23.8778 50.184 23.8778 50.8069C23.8778 51.4304 23.3717 51.9359 22.7488 51.9359ZM26.9776 24.0007C24.2251 21.5862 22.6843 18.1054 22.751 14.4505C22.8673 7.994 28.2064 2.52979 34.653 2.26959C38.0973 2.14445 41.3096 3.35835 43.7683 5.7211C46.2308 8.08441 47.5869 11.2669 47.5869 14.6787C47.5869 18.2857 46.0152 21.7091 43.276 24.0696C40.9931 26.0388 39.6839 28.7836 39.6839 31.6017V31.6138H30.6403C30.5791 28.7654 29.2582 25.9991 26.9776 24.0007ZM39.6839 33.8718V36.1298H30.6518V33.8718H39.6839ZM32.9098 38.3878H37.4259C37.4259 39.6332 36.4126 40.6458 35.1679 40.6458C33.9225 40.6458 32.9098 39.6332 32.9098 38.3878ZM43.0709 66.613V67.742H40.8129V65.484H38.5549V67.742H31.7808V65.484H29.5228V67.742H27.2648V66.613C27.2648 62.2563 30.8106 58.7099 35.1679 58.7099C39.5246 58.7099 43.0709 62.2563 43.0709 66.613ZM31.7808 53.0649V50.8069C31.7808 48.9397 33.3001 47.4199 35.1679 47.4199C37.035 47.4199 38.5549 48.9397 38.5549 50.8069V53.0649C38.5549 54.9321 37.035 56.4519 35.1679 56.4519C33.3001 56.4519 31.7808 54.9321 31.7808 53.0649ZM47.5869 51.9359C46.9634 51.9359 46.4579 51.4304 46.4579 50.8069C46.4579 50.184 46.9634 49.6779 47.5869 49.6779C48.2099 49.6779 48.7159 50.184 48.7159 50.8069C48.7159 51.4304 48.2099 51.9359 47.5869 51.9359ZM56.619 53.0649V50.8069C56.619 48.9397 58.1383 47.4199 60.006 47.4199C61.8731 47.4199 63.393 48.9397 63.393 50.8069V53.0649C63.393 54.9321 61.8731 56.4519 60.006 56.4519C58.1383 56.4519 56.619 54.9321 56.619 53.0649ZM67.909 67.742H65.651V65.484H63.393V67.742H56.619V65.484H54.3609V67.742H52.1029V66.613C52.1029 62.2563 55.6487 58.7099 60.006 58.7099C64.3627 58.7099 67.909 62.2563 67.909 66.613V67.742Z" fill="black"/>
<path d="M32.9098 27.0978H37.4259V29.3558H32.9098V27.0978Z" fill="black"/>
<path d="M34.0388 20.2096V22.5818H36.2968V20.2096C37.0157 20.063 37.6844 19.7763 38.2759 19.3833L40.0146 21.122L41.6105 19.5255L39.8724 17.7868C40.2649 17.1953 40.5515 16.5271 40.6987 15.8077H43.0708V13.5497H40.6987C40.5515 12.8303 40.2649 12.1622 39.8724 11.5707L41.6105 9.83195L40.0146 8.23546L38.2759 9.97418C37.6844 9.58112 37.0157 9.29446 36.2968 9.14782V6.7757H34.0388V9.14782C33.3194 9.29446 32.6512 9.58112 32.0592 9.97418L30.3205 8.23546L28.7245 9.83195L30.4633 11.5707C30.0702 12.1622 29.7835 12.8303 29.6363 13.5497H27.2648V15.8077H29.6363C29.7835 16.5271 30.0702 17.1953 30.4633 17.7868L28.7245 19.5255L30.3205 21.122L32.0592 19.3833C32.6512 19.7763 33.3194 20.063 34.0388 20.2096ZM35.1678 11.2917C37.035 11.2917 38.5548 12.8116 38.5548 14.6787C38.5548 16.5459 37.035 18.0657 35.1678 18.0657C33.3001 18.0657 31.7808 16.5459 31.7808 14.6787C31.7808 12.8116 33.3001 11.2917 35.1678 11.2917Z" fill="black"/>
</g>
<defs>
<clipPath id="clip0_2587_7557">
<rect width="70" height="70" fill="white" transform="translate(0.166748)"/>
</clipPath>
</defs>
</svg>
