<svg width="71" height="70" viewBox="0 0 71 70" fill="none" xmlns="http://www.w3.org/2000/svg">
<path d="M29.4984 59.2616L31.4879 59.6991C34.0759 60.2743 36.7556 60.3021 39.3549 59.7805C41.9543 59.2589 44.4159 58.1996 46.5816 56.6705L60.528 46.8267C60.7199 46.6913 60.8631 46.4976 60.9364 46.2744C61.0097 46.0512 61.0092 45.8104 60.9349 45.5875L60.6232 44.6524C60.4184 44.0376 60.0839 43.4739 59.6423 42.9996C59.2008 42.5253 58.6624 42.1514 58.0638 41.9033C57.4652 41.6551 56.8203 41.5384 56.1726 41.5611C55.525 41.5839 54.8898 41.7455 54.3101 42.035L53.3334 42.5261L52.8138 42.2669C51.9278 41.8398 50.96 41.6089 49.9766 41.59C48.9931 41.5711 48.0172 41.7647 47.1154 42.1575L45.4212 41.7342C44.5715 41.5279 43.6868 41.5107 42.8297 41.6838C41.9726 41.8569 41.164 42.2162 40.461 42.7361L37.6566 44.8438H32.8102L31.2396 44.0574C29.1468 43.011 26.8146 42.5365 24.4793 42.6819C22.144 42.8273 19.8886 43.5874 17.9418 44.8853L14.5041 47.1822L12.9182 47.9752L11.6615 45.4486C11.5367 45.1989 11.3212 45.0064 11.0591 44.9104C10.797 44.8144 10.5081 44.8223 10.2516 44.9324L2.59539 48.2136C2.4604 48.2715 2.33843 48.3559 2.23677 48.4619C2.13511 48.5679 2.05584 48.6932 2.00368 48.8305C1.95152 48.9678 1.92754 49.1142 1.93318 49.261C1.93882 49.4077 1.97395 49.5518 2.03648 49.6847L10.7865 68.2785C10.8745 68.4654 11.0137 68.6236 11.1879 68.7347C11.3621 68.8458 11.5642 68.9053 11.7709 68.9063C11.9627 68.9074 12.1514 68.8576 12.3177 68.7619L19.974 64.3869C20.2169 64.2485 20.3976 64.0223 20.479 63.7548C20.5604 63.4873 20.5362 63.1988 20.4115 62.9486L19.2477 60.6222C22.3978 58.9759 26.0279 58.494 29.4984 59.2616ZM51.3362 44.0202L46.3694 48.2781C46.0685 47.5381 45.6094 46.8729 45.0241 46.3291L47.0159 44.7344C47.62 44.2658 48.3313 43.9551 49.0856 43.8304C49.8399 43.7057 50.6134 43.7709 51.3362 44.0202ZM41.7746 44.4894C42.1842 44.1914 42.6501 43.9795 43.144 43.8667C43.6378 43.7539 44.1495 43.7425 44.6479 43.8331L43.0073 45.1456C42.4588 44.954 41.883 44.8521 41.3021 44.8438L41.7746 44.4894ZM12.2565 66.2813L4.49086 49.7831L10.1576 47.355L17.9866 63L12.2565 66.2813ZM13.8971 49.9319L15.5377 49.1094C15.5783 49.0886 15.6177 49.0656 15.6559 49.0405L19.1559 46.7108C20.7806 45.6273 22.6628 44.9922 24.6119 44.8698C26.5609 44.7475 28.5077 45.1422 30.2552 46.0141L32.0588 46.9164C32.212 46.9928 32.381 47.0321 32.5521 47.0313H41.3021C41.9805 47.0321 42.6421 47.2428 43.1961 47.6344C43.75 48.026 44.1693 48.5795 44.3963 49.2188H34.7396V51.4063H45.6771C45.9383 51.4062 46.1909 51.3127 46.3891 51.1427L53.9437 44.6666L55.2846 43.9961C55.6093 43.835 55.9667 43.7508 56.3291 43.75C56.8198 43.7494 57.2981 43.9035 57.6961 44.1904C58.0942 44.4773 58.3916 44.8823 58.5462 45.348L58.6009 45.5121L45.3184 54.8888C43.4017 56.2413 41.2236 57.1783 38.9236 57.6398C36.6236 58.1012 34.2526 58.077 31.9626 57.5685L29.972 57.1255C26.0109 56.2493 21.8677 56.7953 18.2688 58.6677L13.8971 49.9319Z" fill="black"/>
<path d="M68.9915 12.0871L36.179 1.14955C35.9546 1.07482 35.7121 1.07482 35.4877 1.14955L2.6752 12.0871C2.45638 12.159 2.26584 12.2981 2.13077 12.4847C1.99569 12.6713 1.92297 12.8958 1.92297 13.1261C1.92297 13.3565 1.99569 13.5809 2.13077 13.7675C2.26584 13.9541 2.45638 14.0933 2.6752 14.1652L15.0521 18.2886V30.625C15.0521 30.7948 15.0916 30.9623 15.1675 31.1142C15.2435 31.266 15.3537 31.3981 15.4896 31.5C21.3586 35.9018 28.497 38.2813 35.8333 38.2813C43.1696 38.2813 50.308 35.9018 56.1771 31.5C56.3129 31.3981 56.4232 31.266 56.4991 31.1142C56.575 30.9623 56.6146 30.7948 56.6146 30.625V18.2886L62.0833 16.4653V25.1563C61.8647 25.1561 61.6511 25.2215 61.4699 25.3439C61.2888 25.4663 61.1486 25.6402 61.0672 25.8431L58.8797 31.3119C58.8285 31.4414 58.8021 31.5795 58.8021 31.7188V33.9063C58.8021 34.1964 58.9173 34.4745 59.1224 34.6797C59.3275 34.8848 59.6057 35 59.8958 35H66.4583C66.7484 35 67.0266 34.8848 67.2317 34.6797C67.4368 34.4745 67.5521 34.1964 67.5521 33.9063V31.7188C67.552 31.5795 67.5257 31.4414 67.4744 31.3119L65.2869 25.8431C65.2056 25.6402 65.0653 25.4663 64.8842 25.3439C64.7031 25.2215 64.4894 25.1561 64.2708 25.1563V15.7369L68.9915 14.163C69.2103 14.0911 69.4008 13.9519 69.5359 13.7653C69.671 13.5787 69.7437 13.3543 69.7437 13.1239C69.7437 12.8936 69.671 12.6691 69.5359 12.4825C69.4008 12.296 69.2103 12.1568 68.9915 12.0849V12.0871ZM65.3646 31.9288V32.8125H60.9896V31.9288L62.8238 27.3438H63.5304L65.3646 31.9288ZM35.8333 36.0938C29.1591 36.0807 22.6567 33.9769 17.2396 30.0781V27.2344C22.7668 30.8546 29.2261 32.7924 35.8333 32.8125C42.4406 32.7924 48.8999 30.8546 54.4271 27.2344V30.0781C49.01 33.9769 42.5076 36.0807 35.8333 36.0938ZM54.4271 24.5821C49.0138 28.4917 42.5108 30.6052 35.8333 30.625C29.1559 30.6052 22.6528 28.4917 17.2396 24.5821V19.0181L35.4877 25.1005C35.7121 25.1752 35.9546 25.1752 36.179 25.1005L54.4271 19.0181V24.5821ZM35.8333 22.9097L6.47926 13.125L35.8333 3.34033L65.1874 13.125L35.8333 22.9097Z" fill="black"/>
<path d="M35.8334 15.3125C37.0415 15.3125 38.0209 14.3331 38.0209 13.125C38.0209 11.9169 37.0415 10.9375 35.8334 10.9375C34.6253 10.9375 33.6459 11.9169 33.6459 13.125C33.6459 14.3331 34.6253 15.3125 35.8334 15.3125Z" fill="black"/>
</svg>
