<svg width="71" height="70" viewBox="0 0 71 70" fill="none" xmlns="http://www.w3.org/2000/svg">
<path d="M35.5 15.3125C31.6062 15.3125 27.7998 16.4672 24.5622 18.6304C21.3246 20.7937 18.8012 23.8685 17.3111 27.4659C15.821 31.0633 15.4312 35.0218 16.1908 38.8408C16.9504 42.6598 18.8255 46.1678 21.5788 48.9212C24.3322 51.6745 27.8402 53.5496 31.6592 54.3092C35.4782 55.0689 39.4367 54.679 43.0341 53.1889C46.6315 51.6988 49.7063 49.1754 51.8696 45.9378C54.0329 42.7002 55.1875 38.8938 55.1875 35C55.1814 29.7804 53.1053 24.7764 49.4145 21.0856C45.7237 17.3947 40.7196 15.3186 35.5 15.3125ZM46.408 33.9062C46.3453 31.1777 45.9441 28.4674 45.2136 25.8377C46.4138 25.1463 47.5385 24.3314 48.5692 23.4062C51.1625 26.3174 52.7031 30.015 52.9442 33.9062H46.408ZM36.5938 17.6597C39 18.2919 41.1306 20.9661 42.5306 24.7592C40.6528 25.5873 38.6424 26.074 36.5938 26.1964V17.6597ZM41.6644 18.6441C43.6296 19.3862 45.445 20.4762 47.0238 21.8619C46.2425 22.5556 45.4006 23.1779 44.5081 23.7212C43.84 21.8863 42.8797 20.1715 41.6644 18.643V18.6441ZM34.4063 17.6597V26.1964C32.3576 26.0742 30.3471 25.5876 28.4694 24.7592C29.8694 20.9661 32 18.2919 34.4063 17.6597ZM26.4897 23.718C25.5968 23.1752 24.7549 22.5529 23.9741 21.8586C25.5528 20.4729 27.3683 19.3829 29.3334 18.6408C28.1182 20.169 27.158 21.8834 26.4897 23.718ZM34.4063 28.3839V33.9062H26.7784C26.8454 31.5257 27.1864 29.1607 27.7945 26.8581C29.892 27.7503 32.13 28.2667 34.4063 28.3839ZM34.4063 36.0938V41.6161C32.1297 41.7351 29.8917 42.2534 27.7945 43.1473C27.1859 40.843 26.845 38.4762 26.7784 36.0938H34.4063ZM34.4063 43.8036V52.3403C32 51.7081 29.8694 49.0339 28.4694 45.2408C30.3472 44.4127 32.3576 43.926 34.4063 43.8036ZM29.3356 51.357C27.3705 50.6149 25.555 49.5249 23.9763 48.1392C24.7573 47.4452 25.5992 46.8228 26.4919 46.2798C27.1601 48.1144 28.1204 49.8289 29.3356 51.357ZM36.5938 52.3414V43.8102C38.6425 43.9327 40.6528 44.421 42.5295 45.2517C41.1295 49.0361 39 51.7081 36.5938 52.3403V52.3414ZM44.5081 46.2897C45.3998 46.8317 46.2416 47.4518 47.0238 48.1425C45.4466 49.527 43.633 50.6162 41.6699 51.3581C42.8824 49.8319 43.8408 48.1201 44.5081 46.2886V46.2897ZM36.5938 41.6161V36.0938H44.2216C44.1546 38.4743 43.8137 40.8393 43.2055 43.1419C41.108 42.2497 38.8701 41.7333 36.5938 41.6161ZM36.5938 33.9062V28.3839C38.8703 28.2667 41.1082 27.7483 43.2044 26.8527C43.8125 29.1571 44.1538 31.5239 44.2216 33.9062H36.5938ZM22.4286 23.4062C23.4577 24.336 24.5826 25.1539 25.7842 25.8464C25.0552 28.4734 24.6548 31.1807 24.592 33.9062H18.0558C18.2964 30.0153 19.8362 26.3178 22.4286 23.4062ZM18.0536 36.0938H24.5899C24.6525 38.8204 25.0529 41.5288 25.782 44.1569C24.5802 44.8486 23.4553 45.6662 22.4264 46.5959C19.8344 43.6835 18.2953 39.9852 18.0558 36.0938H18.0536ZM48.5692 46.5937C47.5401 45.664 46.4153 44.8461 45.2136 44.1536C45.9434 41.5267 46.3445 38.8194 46.408 36.0938H52.9442C52.7037 39.9847 51.1638 43.6822 48.5714 46.5937H48.5692Z" fill="black"/>
<path d="M65.0313 20.7813V20.7605C66.3204 19.7941 67.3797 18.5545 68.1335 17.1305C68.8872 15.7066 69.3167 14.1335 69.3911 12.5241C69.4655 10.9147 69.183 9.30876 68.5638 7.82135C67.9446 6.33394 67.0042 5.0019 65.8097 3.92067C64.6153 2.83944 63.1964 2.0358 61.6549 1.56732C60.1134 1.09884 58.4873 0.977125 56.8933 1.2109C55.2992 1.44467 53.7765 2.02815 52.4344 2.91951C51.0923 3.81088 49.964 4.98807 49.1303 6.36672C44.8736 4.33541 40.2166 3.2812 35.5 3.2812C30.7834 3.2812 26.1265 4.33541 21.8697 6.36672C21.0124 4.94811 19.8435 3.74314 18.4517 2.84303C17.0598 1.94292 15.4814 1.37128 13.836 1.17137C12.1905 0.971465 10.5212 1.14854 8.95425 1.68918C7.38736 2.22982 5.96399 3.11987 4.79193 4.29193C3.61987 5.46399 2.72982 6.88736 2.18918 8.45425C1.64854 10.0212 1.47146 11.6905 1.67137 13.336C1.87128 14.9814 2.44292 16.5598 3.34303 17.9517C4.24314 19.3435 5.44811 20.5124 6.86672 21.3697C4.8351 25.6264 3.78073 30.2834 3.78073 35C3.78073 39.7167 4.8351 44.3736 6.86672 48.6303C5.33621 49.5528 4.05595 50.8373 3.13868 52.371C2.22141 53.9046 1.69526 55.6402 1.60655 57.425C1.51785 59.2098 1.86931 60.9891 2.62999 62.6061C3.39068 64.2231 4.53725 65.6283 5.96876 66.698V66.7188H5.99719C7.87974 68.1384 10.1734 68.9063 12.5313 68.9063C14.8891 68.9063 17.1828 68.1384 19.0653 66.7188H19.0938V66.698C20.2044 65.8619 21.1464 64.8227 21.8697 63.6355C26.1265 65.6668 30.7834 66.721 35.5 66.721C40.2166 66.721 44.8736 65.6668 49.1303 63.6355C49.988 65.0534 51.157 66.2576 52.5487 67.1571C53.9405 68.0566 55.5187 68.6277 57.1637 68.8273C58.8088 69.0268 60.4778 68.8496 62.0442 68.3089C63.6107 67.7683 65.0337 66.8785 66.2055 65.7067C67.3773 64.535 68.2673 63.1121 68.808 61.5457C69.3487 59.9792 69.5261 58.3103 69.3267 56.6652C69.1272 55.0201 68.5562 53.4419 67.6569 52.0501C66.7575 50.6582 65.5533 49.4892 64.1355 48.6314C66.166 44.3742 67.2198 39.7172 67.2198 35.0006C67.2198 30.2839 66.166 25.6269 64.1355 21.3697C64.4352 21.1867 64.725 20.9905 65.005 20.7813H65.0313ZM58.4688 3.28126C60.1572 3.27863 61.8102 3.76537 63.2278 4.68258C64.6454 5.59978 65.7669 6.90815 66.4564 8.44938C67.146 9.99061 67.3741 11.6986 67.1132 13.3668C66.8523 15.035 66.1136 16.5918 64.9864 17.8489C64.8663 16.8085 64.4993 15.8118 63.916 14.942C63.3327 14.0722 62.5499 13.3543 61.633 12.8483C62.2246 12.2287 62.6213 11.449 62.7738 10.606C62.9264 9.76303 62.8281 8.8938 62.4911 8.10616C62.1542 7.31852 61.5934 6.64715 60.8783 6.17532C60.1633 5.70349 59.3254 5.45197 58.4688 5.45197C57.6121 5.45197 56.7742 5.70349 56.0592 6.17532C55.3441 6.64715 54.7833 7.31852 54.4464 8.10616C54.1094 8.8938 54.0111 9.76303 54.1637 10.606C54.3162 11.449 54.7129 12.2287 55.3045 12.8483C54.3876 13.3543 53.6048 14.0722 53.0215 14.942C52.4382 15.8118 52.0712 16.8085 51.9511 17.8489C50.8239 16.5918 50.0852 15.035 49.8243 13.3668C49.5634 11.6986 49.7915 9.99061 50.4811 8.44938C51.1707 6.90815 52.2921 5.59978 53.7097 4.68258C55.1273 3.76537 56.7803 3.27863 58.4688 3.28126ZM58.4688 20.7813C56.9314 20.781 55.4216 20.3726 54.0938 19.5978V18.5938C54.0938 17.4334 54.5547 16.3206 55.3752 15.5002C56.1956 14.6797 57.3084 14.2188 58.4688 14.2188C59.6291 14.2188 60.7419 14.6797 61.5623 15.5002C62.3828 16.3206 62.8438 17.4334 62.8438 18.5938V19.5978C61.5159 20.3726 60.0061 20.781 58.4688 20.7813ZM56.2813 9.84376C56.2813 9.41111 56.4095 8.98818 56.6499 8.62845C56.8903 8.26871 57.2319 7.98834 57.6316 7.82277C58.0313 7.6572 58.4712 7.61388 58.8955 7.69829C59.3199 7.78269 59.7096 7.99103 60.0156 8.29696C60.3215 8.60289 60.5298 8.99266 60.6142 9.417C60.6986 9.84133 60.6553 10.2812 60.4897 10.6809C60.3242 11.0806 60.0438 11.4222 59.6841 11.6626C59.3243 11.903 58.9014 12.0313 58.4688 12.0313C57.8886 12.0313 57.3322 11.8008 56.922 11.3906C56.5117 10.9803 56.2813 10.4239 56.2813 9.84376ZM3.78126 12.0313C3.78126 10.3007 4.29443 8.60895 5.2559 7.17002C6.21736 5.73109 7.58392 4.60958 9.18278 3.94731C10.7816 3.28504 12.541 3.11176 14.2383 3.44938C15.9356 3.78701 17.4947 4.62036 18.7184 5.84407C19.9422 7.06778 20.7755 8.62688 21.1131 10.3242C21.4507 12.0216 21.2775 13.7809 20.6152 15.3797C19.9529 16.9786 18.8314 18.3452 17.3925 19.3066C15.9536 20.2681 14.2618 20.7813 12.5313 20.7813C10.2114 20.7787 7.98733 19.8559 6.34695 18.2156C4.70657 16.5752 3.78386 14.3511 3.78126 12.0313ZM8.15626 65.5353V64.5313C8.15626 63.3709 8.61719 62.2581 9.43766 61.4377C10.2581 60.6172 11.3709 60.1563 12.5313 60.1563C13.6916 60.1563 14.8044 60.6172 15.6248 61.4377C16.4453 62.2581 16.9063 63.3709 16.9063 64.5313V65.5353C15.5785 66.3103 14.0687 66.7187 12.5313 66.7187C10.9938 66.7187 9.48403 66.3103 8.15626 65.5353ZM10.3438 55.7813C10.3438 55.3486 10.4721 54.9257 10.7124 54.5659C10.9528 54.2062 11.2944 53.9258 11.6941 53.7603C12.0939 53.5947 12.5337 53.5514 12.958 53.6358C13.3823 53.7202 13.7721 53.9285 14.0781 54.2345C14.384 54.5404 14.5923 54.9302 14.6767 55.3545C14.7611 55.7788 14.7178 56.2187 14.5522 56.6184C14.3867 57.0181 14.1063 57.3597 13.7466 57.6001C13.3868 57.8405 12.9639 57.9688 12.5313 57.9688C11.9511 57.9688 11.3947 57.7383 10.9845 57.3281C10.5742 56.9178 10.3438 56.3614 10.3438 55.7813ZM19.0489 63.7864C18.9288 62.746 18.5618 61.7493 17.9785 60.8795C17.3952 60.0097 16.6124 59.2918 15.6955 58.7858C16.2871 58.1662 16.6838 57.3865 16.8363 56.5435C16.9889 55.7005 16.8906 54.8313 16.5536 54.0437C16.2167 53.256 15.6559 52.5846 14.9408 52.1128C14.2258 51.641 13.3879 51.3895 12.5313 51.3895C11.6746 51.3895 10.8367 51.641 10.1217 52.1128C9.40664 52.5846 8.84585 53.256 8.50889 54.0437C8.17193 54.8313 8.07363 55.7005 8.22618 56.5435C8.37873 57.3865 8.77542 58.1662 9.36704 58.7858C8.45008 59.2918 7.66733 60.0097 7.08401 60.8795C6.50069 61.7493 6.13369 62.746 6.0136 63.7864C4.88625 62.5278 4.14742 60.9698 3.88634 59.3004C3.62526 57.631 3.8531 55.9218 4.54235 54.3791C5.23159 52.8364 6.35275 51.5263 7.77042 50.6069C9.18808 49.6876 10.8416 49.1984 12.5313 49.1984C14.2209 49.1984 15.8744 49.6876 17.2921 50.6069C18.7098 51.5263 19.8309 52.8364 20.5202 54.3791C21.2094 55.9218 21.4373 57.631 21.1762 59.3004C20.9151 60.9698 20.1763 62.5278 19.0489 63.7864ZM67.2188 57.9688C67.2188 59.6993 66.7056 61.3911 65.7441 62.83C64.7826 64.2689 63.4161 65.3904 61.8172 66.0527C60.2184 66.715 58.459 66.8882 56.7617 66.5506C55.0644 66.213 53.5053 65.3796 52.2816 64.1559C51.0579 62.9322 50.2245 61.3731 49.8869 59.6758C49.5493 57.9785 49.7225 56.2191 50.3848 54.6203C51.0471 53.0214 52.1686 51.6549 53.6075 50.6934C55.0464 49.7319 56.7382 49.2188 58.4688 49.2188C60.7886 49.2214 63.0127 50.1441 64.6531 51.7844C66.2934 53.4248 67.2161 55.6489 67.2188 57.9688ZM65.0313 35C65.0278 39.3895 64.0483 43.7233 62.1634 47.6875C60.2133 46.9791 58.1015 46.8416 56.0759 47.2913C54.0504 47.7409 52.1951 48.759 50.7278 50.226C49.2606 51.6931 48.2422 53.5482 47.7922 55.5737C47.3423 57.5992 47.4794 59.711 48.1875 61.6613C44.2249 63.551 39.8902 64.5318 35.5 64.5318C31.1098 64.5318 26.7751 63.551 22.8125 61.6613C23.5203 59.7112 23.6573 57.5997 23.2074 55.5745C22.7575 53.5494 21.7394 51.6945 20.2724 50.2276C18.8055 48.7606 16.9507 47.7425 14.9255 47.2926C12.9003 46.8427 10.7888 46.9797 8.83876 47.6875C6.94897 43.7249 5.96826 39.3902 5.96826 35C5.96826 30.6098 6.94897 26.2751 8.83876 22.3125C10.7888 23.0203 12.9003 23.1573 14.9255 22.7074C16.9507 22.2575 18.8055 21.2394 20.2724 19.7724C21.7394 18.3055 22.7575 16.4507 23.2074 14.4255C23.6573 12.4003 23.5203 10.2888 22.8125 8.33876C26.7751 6.44897 31.1098 5.46826 35.5 5.46826C39.8902 5.46826 44.2249 6.44897 48.1875 8.33876C47.388 10.5337 47.318 12.9281 47.988 15.166C48.658 17.4039 50.0321 19.3659 51.9063 20.7605V20.7813H51.9347C53.3756 21.8706 55.0666 22.5814 56.853 22.8489C58.6395 23.1164 60.4644 22.932 62.1613 22.3125C64.0463 26.2767 65.0266 30.6104 65.0313 35Z" fill="black"/>
<path d="M18 17.5V6.5625C18 6.27242 17.8848 5.99422 17.6796 5.7891C17.4745 5.58398 17.1963 5.46875 16.9062 5.46875H8.15625C7.86617 5.46875 7.58797 5.58398 7.38285 5.7891C7.17773 5.99422 7.0625 6.27242 7.0625 6.5625V17.5C7.0625 17.7901 7.17773 18.0683 7.38285 18.2734C7.58797 18.4785 7.86617 18.5938 8.15625 18.5938H16.9062C17.1963 18.5938 17.4745 18.4785 17.6796 18.2734C17.8848 18.0683 18 17.7901 18 17.5ZM15.8125 16.4062H9.25V7.65625H15.8125V16.4062Z" fill="black"/>
<path d="M53 52.5V63.4375C53 63.7276 53.1152 64.0058 53.3204 64.2109C53.5255 64.416 53.8037 64.5312 54.0938 64.5312H62.8438C63.1338 64.5312 63.412 64.416 63.6171 64.2109C63.8223 64.0058 63.9375 63.7276 63.9375 63.4375V52.5C63.9375 52.2099 63.8223 51.9317 63.6171 51.7266C63.412 51.5215 63.1338 51.4062 62.8438 51.4062H54.0938C53.8037 51.4062 53.5255 51.5215 53.3204 51.7266C53.1152 51.9317 53 52.2099 53 52.5ZM55.1875 53.5938H61.75V62.3438H55.1875V53.5938Z" fill="black"/>
<path d="M60.6562 54.6875H56.2812V56.875H60.6562V54.6875Z" fill="black"/>
<path d="M60.6562 59.0625H56.2812V61.25H60.6562V59.0625Z" fill="black"/>
<path d="M14.7188 8.75H10.3438V10.9375H14.7188V8.75Z" fill="black"/>
<path d="M14.7188 13.125H10.3438V15.3125H14.7188V13.125Z" fill="black"/>
</svg>
